<?xml version="1.0" standalone="no"?>
<!DOCTYPE svg PUBLIC "-//W3C//DTD SVG 20010904//EN"
 "http://www.w3.org/TR/2001/REC-SVG-20010904/DTD/svg10.dtd">
<svg version="1.0" xmlns="http://www.w3.org/2000/svg"
 width="127.000000pt" height="132.000000pt" viewBox="0 0 127.000000 132.000000"
 preserveAspectRatio="xMidYMid meet">
<metadata>
Created by potrace 1.10, written by Peter Selinger 2001-2011
</metadata>
<g transform="translate(0.000000,132.000000) scale(0.100000,-0.100000)"
fill="#000000" stroke="none">
<path d="M192 1214 c-46 -32 -52 -61 -52 -253 l0 -180 31 -36 c29 -33 35 -35
90 -35 l59 0 0 -48 0 -49 -59 0 c-66 0 -116 -24 -152 -74 -44 -62 -47 -156 -7
-199 16 -17 30 -21 66 -19 42 3 47 1 53 -21 4 -14 7 -41 8 -61 1 -41 26 -69
60 -69 14 0 39 -16 62 -40 l39 -40 191 0 c148 0 190 3 187 13 -4 9 -54 13
-190 17 -165 4 -188 7 -207 24 -29 26 -27 35 13 51 58 25 62 73 10 140 l-36
47 36 30 c30 25 36 36 36 69 0 32 -7 46 -40 79 l-40 40 0 278 c0 238 -2 281
-16 300 -9 13 -14 24 -13 25 2 1 171 0 376 -3 340 -5 374 -7 390 -23 16 -16
18 -45 20 -330 1 -252 4 -312 15 -312 10 0 14 56 16 290 3 313 -1 350 -45 384
-25 20 -37 21 -452 21 -370 0 -429 -2 -449 -16z m102 -35 l26 -20 0 -215 0
-215 -52 7 c-38 4 -59 13 -76 31 -21 23 -22 31 -22 202 0 175 0 179 25 205 29
31 63 33 99 5z m33 -605 c32 -16 83 -76 83 -99 0 -14 -61 -78 -67 -71 -3 3 2
17 11 31 16 24 16 27 -1 55 -9 16 -34 36 -55 45 -34 13 -42 13 -78 -1 -35 -14
-60 -38 -60 -58 0 -12 31 -5 36 8 8 20 59 39 84 31 25 -8 60 -44 60 -62 0 -17
-18 -16 -36 2 -17 17 -51 19 -72 6 -8 -5 -17 -23 -21 -40 -7 -39 -22 -44 -36
-13 -10 23 -35 31 -35 10 1 -19 22 -42 50 -55 24 -11 23 -12 -16 -12 -46 -1
-61 11 -70 58 -7 36 17 110 44 134 52 48 119 59 179 31z m22 -225 c69 -103 69
-108 -6 -141 -61 -27 -80 -14 -88 59 -4 32 -11 77 -16 100 -11 52 -4 73 26 73
17 0 37 -22 84 -91z"/>
<path d="M673 1100 c-18 -10 -39 -31 -49 -45 -9 -14 -24 -25 -33 -25 -30 0
-61 -43 -61 -82 0 -37 15 -59 52 -79 17 -9 19 -17 13 -56 -10 -69 -2 -73 135
-73 131 0 130 -1 130 71 0 33 6 46 35 73 25 24 35 42 35 63 0 36 -34 83 -60
83 -10 0 -25 11 -34 25 -22 33 -74 65 -106 65 -14 0 -39 -9 -57 -20z m107 -30
c38 -27 56 -73 42 -105 -7 -15 -8 -26 -2 -30 17 -11 30 5 30 36 0 30 17 38 38
17 29 -29 1 -98 -40 -98 -10 0 -27 9 -38 20 -24 24 -40 26 -40 5 0 -9 16 -25
35 -36 38 -23 38 -39 -1 -39 -32 0 -27 -22 7 -30 13 -3 24 -12 24 -20 0 -12
-21 -16 -107 -18 -102 -3 -108 -2 -108 17 0 17 8 20 55 23 30 2 55 8 55 13 0
6 -25 11 -55 13 -59 3 -67 11 -33 34 28 18 16 43 -12 26 -23 -15 -66 4 -73 32
-8 30 16 65 46 68 18 2 31 12 37 26 11 30 59 65 88 66 13 0 36 -9 52 -20z"/>
<path d="M452 628 c7 -19 38 -22 38 -4 0 10 -9 16 -21 16 -12 0 -19 -5 -17
-12z"/>
<path d="M532 628 c4 -10 62 -14 236 -16 202 -2 232 0 232 13 0 13 -32 15
-236 15 -184 0 -235 -3 -232 -12z"/>
<path d="M530 545 c0 -13 21 -15 130 -15 109 0 130 2 130 15 0 13 -21 15 -130
15 -109 0 -130 -2 -130 -15z"/>
<path d="M537 474 c-19 -20 25 -24 234 -24 197 0 229 2 229 15 0 13 -32 15
-228 15 -126 0 -232 -3 -235 -6z"/>
<path d="M1070 442 c-63 -36 -199 -128 -210 -141 -3 -3 -26 -23 -52 -44 -27
-21 -48 -44 -48 -50 0 -22 62 -79 107 -98 116 -50 253 3 310 120 25 52 24 155
-3 205 -11 22 -25 41 -30 43 -5 2 -39 -14 -74 -35z m89 -46 c21 -83 8 -146
-42 -203 -66 -75 -163 -93 -255 -47 -59 29 -79 55 -58 73 11 9 20 6 41 -13 82
-76 211 -50 266 54 22 41 24 104 5 142 -15 29 -12 38 14 38 12 0 21 -13 29
-44z m-65 -8 c29 -109 -46 -207 -149 -196 -40 5 -105 40 -105 56 0 4 22 21 48
39 26 17 76 52 112 77 36 25 70 46 76 46 7 0 14 -10 18 -22z"/>
<path d="M997 265 c-8 -18 11 -31 25 -17 11 11 3 32 -12 32 -4 0 -10 -7 -13
-15z"/>
<path d="M530 385 c0 -8 5 -15 10 -15 6 0 80 -1 165 -1 85 0 160 1 165 1 6 0
10 7 10 15 0 13 -26 15 -175 15 -149 0 -175 -2 -175 -15z"/>
</g>
</svg>
